<svg xmlns="http://www.w3.org/2000/svg" viewBox="0 0 717 815" width="717" height="815">
	<defs>
		<clipPath clipPathUnits="userSpaceOnUse" id="cp1">
			<path d="M-1285 -687L635 -687L635 4623L-1285 4623Z" />
		</clipPath>
		<clipPath clipPathUnits="userSpaceOnUse" id="cp2">
			<path d="M220.75 180.58C202.28 180.58 187.35 165.65 187.35 147.19C187.35 128.72 202.28 113.79 220.75 113.79C239.22 113.79 254.14 128.72 254.14 147.19C254.14 165.65 239.22 180.58 220.75 180.58Z" />
		</clipPath>
		<clipPath clipPathUnits="userSpaceOnUse" id="cp3">
			<path d="M220.75 303.03C202.28 303.03 187.35 288.1 187.35 269.63C187.35 251.16 202.28 236.24 220.75 236.24C239.22 236.24 254.14 251.16 254.14 269.63C254.14 288.1 239.22 303.03 220.75 303.03Z" />
		</clipPath>
		<clipPath clipPathUnits="userSpaceOnUse" id="cp4">
			<path d="M220.75 425.47C202.28 425.47 187.35 410.54 187.35 392.08C187.35 373.61 202.28 358.68 220.75 358.68C239.22 358.68 254.14 373.61 254.14 392.08C254.14 410.54 239.22 425.47 220.75 425.47Z" />
		</clipPath>
		<clipPath clipPathUnits="userSpaceOnUse" id="cp5">
			<path d="M220.75 547.92C202.28 547.92 187.35 532.99 187.35 514.52C187.35 496.06 202.28 481.13 220.75 481.13C239.22 481.13 254.14 496.06 254.14 514.52C254.14 532.99 239.22 547.92 220.75 547.92Z" />
		</clipPath>
	</defs>
	<style>
		tspan { white-space:pre }
		.shp0 { fill: #ffffff } 
		.shp1 { fill: none;stroke: #e6ebf0;stroke-linecap:square } 
		.txt2 { font-size: 27px;fill: #42505c;font-family: "Aktiv Grotesk";font-weight: 500 } 
		.shp3 { fill: #ffb653 } 
		.shp4 { fill: #ffd7ab } 
		.shp5 { fill: #ffabab } 
		.shp6 { fill: #b9c0e9 } 
		.shp7 { fill: #ff5353 } 
		.shp8 { opacity: 0.471;fill: #ff5353 } 
		.shp9 { opacity: 0.49;fill: #b9c0e9 } 
	</style>
	<g id="::::Home" clip-path="url(#cp1)">
		<g id="Top Earners">
			<path id="cardBg" class="shp0" d="M123 15L594 15C598.42 15 602 18.58 602 23L602 591.4C602 595.82 598.42 599.4 594 599.4L123 599.4C118.58 599.4 115 595.82 115 591.4L115 23C115 18.58 118.58 15 123 15Z" />
			<path id="Line 2 Copy" class="shp1" d="M148.39 207.71L568.61 207.71" />
			<path id="Line 2 Copy" class="shp1" d="M148.39 330.16L568.61 330.16" />
			<path id="Line 2 Copy" class="shp1" d="M148.39 452.61L568.61 452.6" />
			<text id="1." style="transform: matrix(1,0,0,1,148.394,158.097)" >
				<tspan x="0" y="0" class="txt2">1.</tspan>
			</text>
			<text id="2." style="transform: matrix(1,0,0,1,148.394,280.543)" >
				<tspan x="0" y="0" class="txt2">2.</tspan>
			</text>
			<text id="4." style="transform: matrix(1,0,0,1,148.394,525.434)" >
				<tspan x="0" y="0" class="txt2">4.</tspan>
			</text>
			<text id="3." style="transform: matrix(1,0,0,1,148.394,402.989)" >
				<tspan x="0" y="0" class="txt2">3.</tspan>
			</text>
			<g id="profilePicMask">
				<path id="Mask" class="shp3" d="M220.75 180.58C202.28 180.58 187.35 165.65 187.35 147.19C187.35 128.72 202.28 113.79 220.75 113.79C239.22 113.79 254.14 128.72 254.14 147.19C254.14 165.65 239.22 180.58 220.75 180.58Z" />
				<g id="profilePicMask" clip-path="url(#cp2)">
				</g>
			</g>
			<g id="profilePicMask">
				<path id="Mask" class="shp3" d="M220.75 303.03C202.28 303.03 187.35 288.1 187.35 269.63C187.35 251.16 202.28 236.24 220.75 236.24C239.22 236.24 254.14 251.16 254.14 269.63C254.14 288.1 239.22 303.03 220.75 303.03Z" />
				<g id="profilePicMask" clip-path="url(#cp3)">
				</g>
			</g>
			<g id="profilePicMask">
				<path id="Mask" class="shp4" d="M220.75 425.47C202.28 425.47 187.35 410.54 187.35 392.08C187.35 373.61 202.28 358.68 220.75 358.68C239.22 358.68 254.14 373.61 254.14 392.08C254.14 410.54 239.22 425.47 220.75 425.47Z" />
				<g id="profilePicMask" clip-path="url(#cp4)">
				</g>
			</g>
			<g id="profilePicMask">
				<path id="Mask" class="shp5" d="M220.75 547.92C202.28 547.92 187.35 532.99 187.35 514.52C187.35 496.06 202.28 481.13 220.75 481.13C239.22 481.13 254.14 496.06 254.14 514.52C254.14 532.99 239.22 547.92 220.75 547.92Z" />
				<g id="profilePicMask" clip-path="url(#cp5)">
				</g>
			</g>
			<path id="Rectangle 524" class="shp6" d="M154 51.18L288.89 51.18C292.76 51.18 295.89 54.31 295.89 58.18L295.89 63.66C295.89 67.53 292.76 70.66 288.89 70.66L154 70.66C150.13 70.66 147 67.53 147 63.66L147 58.18C147 54.31 150.13 51.18 154 51.18Z" />
			<path id="Rectangle 527" class="shp6" d="M297.28 120.75L432.25 120.75C436.09 120.75 439.2 123.86 439.2 127.71L439.2 127.71C439.2 131.55 436.09 134.66 432.25 134.66L297.28 134.66C293.43 134.66 290.32 131.55 290.32 127.71L290.32 127.71C290.32 123.86 293.43 120.75 297.28 120.75Z" />
			<path id="Rectangle 530" class="shp7" d="M297.28 247.37L432.25 247.37C436.09 247.37 439.2 250.48 439.2 254.33L439.2 254.33C439.2 258.17 436.09 261.28 432.25 261.28L297.28 261.28C293.43 261.28 290.32 258.17 290.32 254.33L290.32 254.33C290.32 250.48 293.43 247.37 297.28 247.37Z" />
			<path id="Rectangle 532" class="shp7" d="M297.28 369.81L432.25 369.81C436.09 369.81 439.2 372.92 439.2 376.77L439.2 376.77C439.2 380.62 436.09 383.73 432.25 383.73L297.28 383.73C293.43 383.73 290.32 380.62 290.32 376.77L290.32 376.77C290.32 372.92 293.43 369.81 297.28 369.81Z" />
			<path id="Rectangle 534" class="shp7" d="M297.28 493.65L432.25 493.65C436.09 493.65 439.2 496.76 439.2 500.61L439.2 500.61C439.2 504.46 436.09 507.57 432.25 507.57L297.28 507.57C293.43 507.57 290.32 504.46 290.32 500.61L290.32 500.61C290.32 496.76 293.43 493.65 297.28 493.65Z" />
			<path id="Rectangle 528" class="shp8" d="M297.28 148.58L373.81 148.58C377.65 148.58 380.76 151.69 380.76 155.53L380.76 155.53C380.76 159.38 377.65 162.49 373.81 162.49L297.28 162.49C293.43 162.49 290.32 159.38 290.32 155.53L290.32 155.53C290.32 151.69 293.43 148.58 297.28 148.58Z" />
			<path id="Rectangle 529" class="shp8" d="M297.28 275.2L373.81 275.2C377.65 275.2 380.76 278.31 380.76 282.15L380.76 282.15C380.76 286 377.65 289.11 373.81 289.11L297.28 289.11C293.43 289.11 290.32 286 290.32 282.15L290.32 282.15C290.32 278.31 293.43 275.2 297.28 275.2Z" />
			<path id="Rectangle 531" class="shp8" d="M297.28 397.64L373.81 397.64C377.65 397.64 380.76 400.75 380.76 404.6L380.76 404.6C380.76 408.45 377.65 411.56 373.81 411.56L297.28 411.56C293.43 411.56 290.32 408.45 290.32 404.6L290.32 404.6C290.32 400.75 293.43 397.64 297.28 397.64Z" />
			<path id="Rectangle 533" class="shp8" d="M297.28 521.48L373.81 521.48C377.65 521.48 380.76 524.59 380.76 528.44L380.76 528.44C380.76 532.28 377.65 535.39 373.81 535.39L297.28 535.39C293.43 535.39 290.32 532.28 290.32 528.44L290.32 528.44C290.32 524.59 293.43 521.48 297.28 521.48Z" />
			<path id="Rectangle 525" class="shp9" d="M461.47 53.96L501.82 53.96C505.66 53.96 508.77 57.07 508.77 60.92L508.77 60.92C508.77 64.76 505.66 67.87 501.82 67.87L461.47 67.87C457.62 67.87 454.51 64.76 454.51 60.92L454.51 60.92C454.51 57.07 457.62 53.96 461.47 53.96Z" />
			<path id="Rectangle 526" class="shp6" d="M528.25 53.96L568.61 53.96C572.45 53.96 575.56 57.07 575.56 60.92L575.56 60.92C575.56 64.76 572.45 67.87 568.61 67.87L528.25 67.87C524.41 67.87 521.3 64.76 521.3 60.92L521.3 60.92C521.3 57.07 524.41 53.96 528.25 53.96Z" />
		</g>
	</g>
</svg>