<svg xmlns="http://www.w3.org/2000/svg" viewBox="0 0 763 668" width="763" height="668">
	<defs>
		<clipPath clipPathUnits="userSpaceOnUse" id="cp1">
			<path d="M-876 -710L1044 -710L1044 4600L-876 4600Z" />
		</clipPath>
	</defs>
	<style>
		tspan { white-space:pre }
		.shp0 { fill: #ffffff } 
		.shp1 { fill: none;stroke: #e6ebf0;stroke-linecap:square } 
		.txt2 { font-size: 18px;line-height: 19px;fill: #79828b;font-family: "Poppins";font-weight: 500 } 
		.shp3 { opacity: 0.502;fill: #b9b9b9 } 
		.shp4 { fill: #ff5353 } 
		.shp5 { opacity: 0.302;fill: #ff5353 } 
	</style>
	<g id="::::Home" clip-path="url(#cp1)">
		<g id="Rank, Projects">
			<path id="cardBg" class="shp0" d="M121.64 131.6L555.34 15.39C559.62 14.24 564 16.77 565.14 21.05L647.01 326.6C648.16 330.88 645.63 335.26 641.36 336.4L207.66 452.61C203.38 453.75 199 451.23 197.86 446.95L115.99 141.4C114.84 137.12 117.37 132.74 121.64 131.6Z" />
			<path id="divider" class="shp1" d="M193.02 304.62L580.04 200.92" />
			<text id="RANK" style="transform: matrix(0.966,-0.259,0.259,0.966,158.134,174.436)" >
				<tspan x="0" y="0" class="txt2">RANK</tspan>
			</text>
			<text id="PROJECTS" style="transform: matrix(0.966,-0.259,0.259,0.966,395.009,110.966)" >
				<tspan x="0" y="0" class="txt2">PROJECTS</tspan>
			</text>
			<g id="rank">
				<path id="Oval 8" class="shp3" d="M197.25 237.59C185.8 240.66 174.06 233.88 170.99 222.43C167.92 210.97 174.7 199.24 186.15 196.17C197.61 193.1 209.34 199.87 212.41 211.33C215.48 222.78 208.71 234.52 197.25 237.59Z" />
				<path id="Star" class="shp0" d="M193.53 223.69L188.08 228.95L187.29 221.13L180.69 217.21L187.56 214.2L188.93 206.52L193.96 212.48L201.4 211.66L197.65 218.35L200.88 225.52L193.53 223.69Z" />
			</g>
			<g id="projects">
				<path id="Oval 8" class="shp3" d="M434.13 174.12C422.67 177.19 410.94 170.41 407.87 158.96C404.8 147.5 411.58 135.76 423.03 132.7C434.48 129.63 446.22 136.4 449.29 147.86C452.36 159.31 445.58 171.05 434.13 174.12Z" />
				<path id="Fill 1" class="shp0" d="M435.97 161.14L435.97 161.14L433.58 159.7L437.96 151.59L430.12 146.78L431.46 144.31L441.69 150.58L435.97 161.13L435.97 161.14ZM427.33 163.45L427.33 163.45L417.1 157.17L422.82 146.62L425.22 148.1L420.84 156.17L428.68 161.01L427.33 163.45L427.33 163.45Z" />
			</g>
			<path id="Rectangle 492" class="shp4" d="M231.99 196.37L349.78 164.81C354.79 163.47 359.93 166.43 361.27 171.44L361.27 171.44C362.61 176.45 359.65 181.59 354.64 182.93L236.85 214.49C231.84 215.83 226.7 212.87 225.36 207.86L225.36 207.86C224.02 202.85 226.98 197.71 231.99 196.37Z" />
			<path id="Rectangle 500" class="shp4" d="M468.87 132.9L545.23 112.44C550.25 111.09 555.38 114.06 556.72 119.07L556.72 119.07C558.07 124.08 555.1 129.22 550.09 130.56L473.72 151.02C468.71 152.36 463.57 149.4 462.23 144.39L462.23 144.39C460.89 139.38 463.85 134.24 468.87 132.9Z" />
			<path id="Rectangle 494" class="shp5" d="M188.53 260.27L297.69 231.02C301.51 230 305.42 232.26 306.45 236.08L306.45 236.08C307.47 239.89 305.21 243.81 301.39 244.83L192.23 274.08C188.41 275.1 184.5 272.84 183.48 269.02L183.48 269.02C182.46 265.21 184.71 261.29 188.53 260.27Z" />
			<path id="Rectangle 496" class="shp4" d="M208.68 337.19L318.7 307.71C322.28 306.75 325.95 308.87 326.91 312.44L326.91 312.44C327.87 316.02 325.75 319.69 322.17 320.65L212.15 350.13C208.57 351.09 204.9 348.97 203.94 345.39L203.94 345.39C202.98 341.81 205.1 338.15 208.68 337.19Z" />
			<path id="Rectangle 497" class="shp5" d="M221.17 383.79L274.24 369.57C277.82 368.61 281.48 370.72 282.44 374.3L282.44 374.3C283.4 377.88 281.28 381.55 277.7 382.51L224.63 396.73C221.06 397.69 217.39 395.57 216.43 391.99L216.43 391.99C215.47 388.41 217.59 384.74 221.17 383.79Z" />
			<path id="Rectangle 498" class="shp5" d="M328.6 355L381.67 340.78C385.25 339.82 388.92 341.94 389.88 345.52L389.88 345.52C390.84 349.1 388.72 352.76 385.14 353.72L332.07 367.94C328.49 368.9 324.82 366.78 323.86 363.2L323.86 363.2C322.9 359.63 325.02 355.96 328.6 355Z" />
			<path id="Rectangle 499" class="shp5" d="M445.1 323.78L498.17 309.56C501.75 308.6 505.41 310.72 506.37 314.3L506.37 314.3C507.33 317.88 505.21 321.55 501.63 322.51L448.56 336.73C444.99 337.69 441.32 335.57 440.36 331.99L440.36 331.99C439.4 328.41 441.52 324.74 445.1 323.78Z" />
			<path id="Rectangle 495" class="shp5" d="M425.41 196.8L534.57 167.55C538.39 166.53 542.3 168.79 543.32 172.6L543.32 172.6C544.34 176.42 542.09 180.34 538.27 181.36L429.11 210.61C425.29 211.63 421.38 209.37 420.35 205.55L420.35 205.55C419.33 201.74 421.59 197.82 425.41 196.8Z" />
		</g>
	</g>
</svg>