<svg xmlns="http://www.w3.org/2000/svg" viewBox="0 0 693 601" width="693" height="601">
	<defs>
		<clipPath clipPathUnits="userSpaceOnUse" id="cp1">
			<path d="M-1052 -186L868 -186L868 5124L-1052 5124Z" />
		</clipPath>
	</defs>
	<style>
		tspan { white-space:pre }
		.shp0 { fill: #ffffff } 
		.shp1 { opacity: 0.788;fill: #ff5353 } 
		.shp2 { fill: none;stroke: #e6ebf0;stroke-linecap:square } 
		.shp3 { fill: #ff5353 } 
		.shp4 { opacity: 0.302;fill: #ff5353 } 
		.shp5 { opacity: 0.2;fill: #ff5353 } 
		.shp6 { opacity: 0.302;fill: #ffffff } 
	</style>
	<g id="::::Home" clip-path="url(#cp1)">
		<g id="Group 212">
			<path id="cardBg" class="shp0" d="M123 65.6L570 65.6C574.42 65.6 578 69.18 578 73.6L578 428C578 432.42 574.42 436 570 436L123 436C118.58 436 115 432.42 115 428L115 73.6C115 69.18 118.58 65.6 123 65.6Z" />
			<path id="Mask" class="shp1" d="M178.5 160.85C160.94 160.85 146.75 146.65 146.75 129.1C146.75 111.54 160.94 97.35 178.5 97.35C196.05 97.35 210.25 111.54 210.25 129.1C210.25 146.65 196.05 160.85 178.5 160.85Z" />
			<path id="divider" class="shp2" d="M146.75 334.8L546.25 334.8" />
			<path id="Rectangle 503" class="shp3" d="M242.38 107.93L352.73 107.93C356.6 107.93 359.73 111.06 359.73 114.93L359.73 115.48C359.73 119.35 356.6 122.48 352.73 122.48L242.38 122.48C238.51 122.48 235.38 119.35 235.38 115.48L235.38 114.93C235.38 111.06 238.51 107.93 242.38 107.93Z" />
			<path id="Rectangle 507" class="shp4" d="M242.38 133.07L310.4 133.07C314.27 133.07 317.4 136.19 317.4 140.07L317.4 140.62C317.4 144.49 314.27 147.62 310.4 147.62L242.38 147.62C238.51 147.62 235.38 144.49 235.38 140.62L235.38 140.07C235.38 136.19 238.51 133.07 242.38 133.07Z" />
			<path id="Rectangle 504" class="shp5" d="M153.75 211.11L527.35 211.11C531.22 211.11 534.35 214.24 534.35 218.11L534.35 218.67C534.35 222.54 531.22 225.67 527.35 225.67L153.75 225.67C149.88 225.67 146.75 222.54 146.75 218.67L146.75 218.11C146.75 214.24 149.88 211.11 153.75 211.11Z" />
			<path id="Rectangle 505" class="shp5" d="M153.75 238.89L440.04 238.89C443.91 238.89 447.04 242.02 447.04 245.89L447.04 246.45C447.04 250.32 443.91 253.45 440.04 253.45L153.75 253.45C149.88 253.45 146.75 250.32 146.75 246.45L146.75 245.89C146.75 242.02 149.88 238.89 153.75 238.89Z" />
			<path id="Rectangle 506" class="shp5" d="M153.75 266.67L369.93 266.67C373.8 266.67 376.93 269.8 376.93 273.67L376.93 274.23C376.93 278.1 373.8 281.23 369.93 281.23L153.75 281.23C149.88 281.23 146.75 278.1 146.75 274.23L146.75 273.67C146.75 269.8 149.88 266.67 153.75 266.67Z" />
			<g id="Group 200">
				<path id="Rectangle 6" class="shp4" d="M478.79 113.22L530.38 113.22C539.16 113.22 546.25 120.32 546.25 129.1L546.25 129.1C546.25 137.88 539.16 144.97 530.38 144.97L478.79 144.97C470.01 144.97 462.91 137.88 462.91 129.1L462.91 129.1C462.91 120.32 470.01 113.22 478.79 113.22Z" />
				<path id="Rectangle 6" class="shp6" d="M487.69 126.45L521.47 126.45C522.93 126.45 524.11 127.63 524.11 129.1L524.11 129.1C524.11 130.56 522.93 131.74 521.47 131.74L487.69 131.74C486.23 131.74 485.05 130.56 485.05 129.1L485.05 129.1C485.05 127.63 486.23 126.45 487.69 126.45Z" />
			</g>
			<g id="Group 201">
				<path id="Rectangle 6" class="shp3" d="M162.62 369.86L214.21 369.86C222.99 369.86 230.09 376.95 230.09 385.73L230.09 385.73C230.09 394.51 222.99 401.61 214.21 401.61L162.62 401.61C153.84 401.61 146.75 394.51 146.75 385.73L146.75 385.73C146.75 376.95 153.84 369.86 162.62 369.86Z" />
				<path id="Rectangle 6" class="shp6" d="M171.53 383.09L205.31 383.09C206.77 383.09 207.95 384.27 207.95 385.73L207.95 385.73C207.95 387.19 206.77 388.38 205.31 388.38L171.53 388.38C170.07 388.38 168.89 387.19 168.89 385.73L168.89 385.73C168.89 384.27 170.07 383.09 171.53 383.09Z" />
			</g>
			<g id="Group 202">
				<path id="Rectangle 6" class="shp3" d="M321.37 369.86L372.96 369.86C381.74 369.86 388.83 376.95 388.83 385.73L388.83 385.73C388.83 394.51 381.74 401.61 372.96 401.61L321.37 401.61C312.59 401.61 305.49 394.51 305.49 385.73L305.49 385.73C305.49 376.95 312.59 369.86 321.37 369.86Z" />
				<path id="Rectangle 6" class="shp6" d="M330.27 383.09L364.05 383.09C365.51 383.09 366.69 384.27 366.69 385.73L366.69 385.73C366.69 387.19 365.51 388.38 364.05 388.38L330.27 388.38C328.81 388.38 327.63 387.19 327.63 385.73L327.63 385.73C327.63 384.27 328.81 383.09 330.27 383.09Z" />
			</g>
			<g id="Group 203">
				<path id="Rectangle 6" class="shp3" d="M478.79 369.86L530.38 369.86C539.16 369.86 546.25 376.95 546.25 385.73L546.25 385.73C546.25 394.51 539.16 401.61 530.38 401.61L478.79 401.61C470.01 401.61 462.91 394.51 462.91 385.73L462.91 385.73C462.91 376.95 470.01 369.86 478.79 369.86Z" />
				<path id="Rectangle 6" class="shp6" d="M487.69 383.09L521.47 383.09C522.93 383.09 524.11 384.27 524.11 385.73L524.11 385.73C524.11 387.19 522.93 388.38 521.47 388.38L487.69 388.38C486.23 388.38 485.05 387.19 485.05 385.73L485.05 385.73C485.05 384.27 486.23 383.09 487.69 383.09Z" />
			</g>
		</g>
	</g>
</svg>