<svg xmlns="http://www.w3.org/2000/svg" viewBox="0 0 573 526" width="573" height="526">
	<defs>
		<clipPath clipPathUnits="userSpaceOnUse" id="cp1">
			<path d="M-1148 -3226L772 -3226L772 2084L-1148 2084Z" />
		</clipPath>
	</defs>
	<style>
		tspan { white-space:pre }
		.shp0 { fill: #ffffff } 
		.txt1 { font-size: 18px;line-height: 25px;fill: #1e1c24;font-family: "Poppins";font-weight: 600;text-anchor: middle } 
		.txt2 { font-size: 13px;line-height: 20px;fill: #1e1c24;font-family: "Poppins";font-weight: 400;text-anchor: middle } 
		.shp3 { fill: #fd5353 } 
		.shp4 { fill: #ffffff;stroke: #cbcbcb } 
		.txt5 { font-size: 14px;line-height: 15px;fill: #1e1c24;font-family: "Poppins";font-weight: 300 } 
		.txt6 { font-size: 14px;line-height: 15px;fill: #ffffff;font-family: "Poppins";font-weight: 500 } 
	</style>
	<g id="::::Home" clip-path="url(#cp1)">
		<g id="Banner">
			<path id="bg" class="shp0" d="M125 15L448 15C453.53 15 458 19.47 458 25L458 301C458 306.53 453.53 311 448 311L125 311C119.47 311 115 306.53 115 301L115 25C115 19.47 119.47 15 125 15Z" />
			<text id="Join the conversatio" style="transform: matrix(1,0,0,1,286.5,127)" >
				<tspan x="0" y="18" class="txt1">Join the conversation on Slack</tspan>
			</text>
			<text id="Stay up to date on t" style="opacity: 0.749;transform: matrix(1,0,0,1,286.5,165)" >
				<tspan x="0" y="13" class="txt2">Stay up to date on the latest news and special programs that only take place within the slack channel.</tspan>
			</text>
			<path id="slack" fill-rule="evenodd" class="shp3" d="M281.39 103L281.39 103C279.32 103 277.44 101.69 276.71 99.75L275.04 94.56L269.85 96.25C269.41 96.37 268.96 96.43 268.51 96.43C266.34 96.43 264.43 95.04 263.76 92.98C262.93 90.43 264.25 87.7 266.76 86.76L271.93 85.07L268.52 74.56L263.33 76.25C262.89 76.37 262.44 76.43 262 76.43C259.82 76.43 257.92 75.04 257.25 72.98C256.42 70.43 257.74 67.69 260.25 66.75L265.44 65.07L263.8 60.04C263.39 58.77 263.5 57.42 264.1 56.23C264.71 55.04 265.74 54.16 267.01 53.75C267.51 53.58 268.03 53.5 268.55 53.5C270.72 53.5 272.63 54.89 273.3 56.95L274.93 61.97L285.44 58.56L283.81 53.54C283.26 51.85 283.66 49.97 284.85 48.65C285.79 47.6 287.14 47 288.56 47C288.9 47 289.25 47.04 289.59 47.11C291.33 47.48 292.75 48.76 293.3 50.45L294.94 55.48L299.97 53.84C300.47 53.68 300.99 53.6 301.52 53.6C302.75 53.6 303.94 54.05 304.86 54.88C306.18 56.07 306.77 57.89 306.4 59.63C306.03 61.37 304.75 62.79 303.06 63.34L298.03 64.98L301.45 75.48L306.45 73.85C306.96 73.68 307.48 73.6 308.01 73.6C308.79 73.6 309.58 73.79 310.27 74.14C311.45 74.74 312.36 75.8 312.76 77.05C313.6 79.66 312.16 82.48 309.55 83.32L304.52 84.96L306.21 90.15C306.94 92.74 305.5 95.42 302.94 96.25C302.44 96.41 301.92 96.49 301.4 96.49C299.32 96.49 297.44 95.19 296.72 93.24L295.03 88.07L284.52 91.48L286.21 96.67C286.92 99.25 285.49 101.93 282.94 102.75C282.43 102.92 281.92 103 281.39 103ZM288.53 68.06L278.02 71.48L281.43 81.99L291.95 78.57L288.53 68.06Z" />
			<g id="btn">
				<path id="bg" class="shp4" d="M137 243L275 243C278.32 243 281 245.68 281 249L281 281C281 284.32 278.32 287 275 287L137 287C133.68 287 131 284.32 131 281L131 249C131 245.68 133.68 243 137 243Z" />
				<text id="REMIND LATER" style="transform: matrix(1,0,0,1,149,271)" >
					<tspan x="0" y="0" class="txt5" dx="0 2 2 2 2 2 2 2 2 2 2 2" >REMIND LATER</tspan>
				</text>
			</g>
			<g id="btn">
				<path id="bg" class="shp3" d="M298 243L436 243C439.32 243 442 245.68 442 249L442 281C442 284.32 439.32 287 436 287L298 287C294.68 287 292 284.32 292 281L292 249C292 245.68 294.68 243 298 243Z" />
				<text id="JOIN NOW" style="transform: matrix(1,0,0,1,325,271)" >
					<tspan x="0" y="0" class="txt6" dx="0 2 2 2 2 2 2 2" >JOIN NOW</tspan>
				</text>
			</g>
		</g>
	</g>
</svg>