<svg xmlns="http://www.w3.org/2000/svg" viewBox="0 0 22 29" width="22" height="29">
	<defs>
		<clipPath clipPathUnits="userSpaceOnUse" id="cp1">
			<path d="M-1302 -1841L618 -1841L618 3469L-1302 3469Z" />
		</clipPath>
	</defs>
	<style>
		tspan { white-space:pre }
		.shp0 { fill: #fd5353 } 
		.shp1 { fill: #ffffff } 
	</style>
	<g id="::::Home" clip-path="url(#cp1)">
		<g id="Group 222">
			<path id="Ellipse 19" class="shp0" d="M11 12C7.68 12 5 9.32 5 6C5 2.68 7.68 0 11 0C14.32 0 17 2.68 17 6C17 9.32 14.32 12 11 12Z" />
			<path id="Ellipse 20" class="shp0" d="M11 29C4.92 29 0 24.08 0 18C0 11.92 4.92 7 11 7C17.08 7 22 11.92 22 18C22 24.08 17.08 29 11 29Z" />
			<path id="Ellipse 21" class="shp1" d="M11 24C7.68 24 5 21.32 5 18C5 14.68 7.68 12 11 12C14.32 12 17 14.68 17 18C17 21.32 14.32 24 11 24Z" />
			<path id="Ellipse 22" class="shp1" d="M11 8C9.89 8 9 7.11 9 6C9 4.89 9.89 4 11 4C12.11 4 13 4.89 13 6C13 7.11 12.11 8 11 8Z" />
		</g>
	</g>
</svg>